<svg width="58" height="58" viewBox="0 0 58 58" fill="none" xmlns="http://www.w3.org/2000/svg">
<path d="M13.5504 19.1293H2.38319C1.89825 19.1293 1.50513 18.7362 1.50513 18.2512V15.786C1.50513 12.217 4.39837 9.32373 7.96736 9.32373C9.68165 9.32312 11.3259 10.0037 12.5383 11.2157C13.7508 12.4276 14.4319 14.0717 14.4319 15.786V18.2512C14.4316 18.4846 14.3385 18.7083 14.1732 18.873C14.0078 19.0377 13.7838 19.1299 13.5504 19.1293Z" fill="#C3DA40"/>
<path d="M20.104 41.009C19.0086 40.3715 18.165 39.3776 17.7139 38.1932C15.5876 37.2733 14.22 35.1685 14.2433 32.852C14.1975 29.7144 16.6993 27.1314 19.8367 27.0769H26.9607C30.0787 27.1756 32.5553 29.7318 32.5553 32.8514C32.5553 35.971 30.0787 38.5272 26.9607 38.6259H21.4401C21.3932 39.1179 21.4123 39.6139 21.4968 40.1009L21.7525 41.6048C21.769 41.6995 21.7275 41.795 21.647 41.8476C21.5665 41.9002 21.4624 41.8998 21.3823 41.8466L20.104 41.009Z" fill="#FF62A7"/>
<path d="M32.5542 32.852C32.6 29.7144 30.0982 27.1314 26.9608 27.0769H19.8449C19.0659 27.0768 18.296 27.2449 17.5879 27.5697C17.9372 32.3855 21.9578 36.1072 26.7861 36.0842H31.5963C32.2246 35.1236 32.5576 33.9998 32.5542 32.852Z" fill="#FC5479"/>
<path d="M34.7822 36.8942C34.9581 36.1618 35.0104 35.4052 34.9373 34.6556H28.025C25.4774 34.7012 23.1016 33.3749 21.8034 31.1824C20.5051 28.9899 20.4844 26.2691 21.7492 24.0572C23.014 21.8452 25.3694 20.483 27.9174 20.4898H36.8519C40.755 20.47 43.9522 23.5853 44.0337 27.4877C44.0761 30.3951 42.3308 33.0309 39.6376 34.1269C38.9427 35.7542 37.6961 37.0844 36.1173 37.8833L34.7915 38.6491C34.7083 38.6976 34.6042 38.6918 34.5269 38.6344C34.4496 38.577 34.414 38.479 34.4363 38.3853L34.7822 36.8942Z" fill="#31D2F7"/>
<path d="M26.6253 29.607C26.5977 27.7101 27.3315 25.8813 28.6624 24.5295C29.9934 23.1777 31.8105 22.4156 33.7076 22.4136H41.764C40.4281 21.1762 38.6741 20.489 36.8531 20.4898H27.9186C25.3706 20.4829 23.0153 21.8451 21.7505 24.0571C20.4857 26.269 20.5063 28.9899 21.8046 31.1823C23.1028 33.3748 25.4786 34.7011 28.0262 34.6556H28.8997C27.4799 33.3568 26.6573 31.5309 26.6253 29.607Z" fill="#13ACE8"/>
<path d="M55.4057 19.1293H44.2396C43.755 19.1287 43.3622 18.7359 43.3616 18.2512V15.786C43.3616 14.0721 44.0424 12.4284 45.2543 11.2165C46.4662 10.0046 48.1099 9.32373 49.8238 9.32373C53.3928 9.32373 56.286 12.217 56.286 15.786V18.2512C56.2857 18.4844 56.1928 18.7079 56.0277 18.8726C55.8626 19.0373 55.6389 19.1296 55.4057 19.1293Z" fill="#FFCF59"/>
<path d="M13.5504 53.6456H2.38319C2.15011 53.6456 1.9266 53.5529 1.7619 53.388C1.59719 53.2231 1.50482 52.9995 1.50513 52.7664V50.3011C1.50513 46.7321 4.39837 43.8389 7.96736 43.8389C11.5364 43.8389 14.4296 46.7321 14.4296 50.3011V52.7664C14.4296 53.252 14.036 53.6456 13.5504 53.6456Z" fill="#FF62A7"/>
<path d="M55.4057 53.6456H44.2396C43.7545 53.645 43.3616 53.2515 43.3616 52.7664V50.3011C43.3616 48.5872 44.0424 46.9435 45.2543 45.7316C46.4662 44.5197 48.1099 43.8389 49.8238 43.8389C53.3928 43.8389 56.286 46.7321 56.286 50.3011V52.7664C56.286 52.9998 56.1933 53.2236 56.0281 53.3885C55.863 53.5534 55.6391 53.6459 55.4057 53.6456Z" fill="#31D2F7"/>
<path d="M6.47038 18.2512V15.786C6.47038 13.1758 8.04029 10.8219 10.45 9.81887C9.66335 9.49123 8.81951 9.32294 7.96736 9.32373C4.39837 9.32373 1.50513 12.217 1.50513 15.786V18.2512C1.50577 18.7364 1.89922 19.1293 2.38434 19.1293H7.3496C7.11652 19.1296 6.89289 19.0372 6.72797 18.8725C6.56305 18.7078 6.47038 18.4843 6.47038 18.2512Z" fill="#ADBC15"/>
<path d="M48.3268 18.2512V15.786C48.3268 13.1758 49.8967 10.8219 52.3064 9.81887C51.5198 9.49123 50.676 9.32294 49.8238 9.32373C46.2548 9.32373 43.3616 12.217 43.3616 15.786V18.2512C43.3622 18.7364 43.7557 19.1293 44.2408 19.1293H49.206C48.973 19.1296 48.7493 19.0372 48.5844 18.8725C48.4195 18.7078 48.3268 18.4843 48.3268 18.2512Z" fill="#FFB55C"/>
<path d="M6.47038 52.7674V50.3021C6.47038 47.692 8.04029 45.338 10.45 44.335C9.66333 44.0074 8.8195 43.8391 7.96736 43.8398C4.39837 43.8398 1.50513 46.7331 1.50513 50.3021V52.7674C1.50513 53.2529 1.89877 53.6466 2.38434 53.6466H7.3496C7.11642 53.6466 6.89278 53.5539 6.7279 53.3891C6.56301 53.2242 6.47038 53.0005 6.47038 52.7674Z" fill="#FC5479"/>
<path d="M48.3268 52.7674V50.3021C48.3268 47.692 49.8967 45.338 52.3064 44.335C51.5198 44.0074 50.6759 43.8391 49.8238 43.8398C46.2548 43.8398 43.3616 46.7331 43.3616 50.3021V52.7674C43.3616 53.2529 43.7552 53.6466 44.2408 53.6466H49.206C48.9729 53.6466 48.7492 53.5539 48.5843 53.3891C48.4195 53.2242 48.3268 53.0005 48.3268 52.7674Z" fill="#13ACE8"/>
<path d="M7.91172 13.0026C5.59884 13.0026 3.72388 11.1277 3.72388 8.8148C3.72388 6.50191 5.59884 4.62695 7.91172 4.62695C10.2246 4.62695 12.0996 6.50191 12.0996 8.8148C12.097 11.1266 10.2235 13.0001 7.91172 13.0026Z" fill="#FAD393"/>
<path d="M49.7669 13.0026C47.4541 13.0026 45.5791 11.1277 45.5791 8.8148C45.5791 6.50191 47.4541 4.62695 49.7669 4.62695C52.0798 4.62695 53.9548 6.50191 53.9548 8.8148C53.9522 11.1266 52.0788 13.0001 49.7669 13.0026Z" fill="#FAD393"/>
<path d="M7.91172 47.52C5.59884 47.52 3.72388 45.645 3.72388 43.3321C3.72388 41.0192 5.59884 39.1443 7.91172 39.1443C10.2246 39.1443 12.0996 41.0192 12.0996 43.3321C12.097 45.644 10.2235 47.5174 7.91172 47.52Z" fill="#FAD393"/>
<path d="M49.7669 47.52C47.4541 47.52 45.5791 45.645 45.5791 43.3321C45.5791 41.0192 47.4541 39.1443 49.7669 39.1443C52.0798 39.1443 53.9548 41.0192 53.9548 43.3321C53.9522 45.644 52.0788 47.5174 49.7669 47.52Z" fill="#FAD393"/>
<path d="M7.67918 8.81464C7.68023 7.27155 8.52908 5.85384 9.88879 5.12425C8.12682 4.1784 5.94197 4.61029 4.67239 6.1554C3.40282 7.7005 3.40282 9.92763 4.67239 11.4727C5.94197 13.0178 8.12682 13.4497 9.88879 12.5039C8.52926 11.7747 7.6804 10.3574 7.67918 8.81464Z" fill="#EDB769"/>
<path d="M49.5344 8.81464C49.5355 7.27155 50.3843 5.85384 51.744 5.12425C49.982 4.1784 47.7972 4.61029 46.5276 6.1554C45.258 7.7005 45.258 9.92763 46.5276 11.4727C47.7972 13.0178 49.982 13.4497 51.744 12.5039C50.3845 11.7747 49.5356 10.3574 49.5344 8.81464Z" fill="#EDB769"/>
<path d="M7.67918 43.332C7.68023 41.7889 8.52908 40.3712 9.88879 39.6416C8.12682 38.6957 5.94197 39.1276 4.67239 40.6727C3.40282 42.2178 3.40282 44.445 4.67239 45.9901C5.94197 47.5352 8.12682 47.9671 9.88879 47.0212C8.52926 46.292 7.6804 44.8747 7.67918 43.332Z" fill="#EDB769"/>
<path d="M49.5344 43.332C49.5355 41.7889 50.3843 40.3712 51.744 39.6416C49.982 38.6957 47.7972 39.1276 46.5276 40.6727C45.258 42.2178 45.258 44.445 46.5276 45.9901C47.7972 47.5352 49.982 47.9671 51.744 47.0212C50.3847 46.2918 49.5359 44.8747 49.5344 43.332Z" fill="#EDB769"/>
<path d="M14.8982 5.80118C15.064 5.80127 15.2269 5.75735 15.3702 5.67392C16.2767 5.14796 17.213 4.67516 18.1745 4.25792C18.6514 4.05123 18.8705 3.49703 18.6638 3.02008C18.4571 2.54313 17.9029 2.32403 17.426 2.53072C16.3972 2.9769 15.3952 3.48253 14.4251 4.04506C14.0579 4.25935 13.8799 4.69303 13.9906 5.10347C14.1012 5.5139 14.4731 5.79931 14.8982 5.80002V5.80118Z" fill="black"/>
<path d="M33.5744 2.43697C34.6075 2.61638 35.6292 2.85587 36.6343 3.15423C36.9567 3.24991 37.3056 3.16633 37.5497 2.93499C37.7937 2.70364 37.8958 2.35966 37.8175 2.03263C37.7392 1.7056 37.4923 1.4452 37.1699 1.34952C36.0945 1.03044 35.0013 0.77434 33.896 0.582523C33.3986 0.52149 32.9406 0.86126 32.8548 1.35505C32.769 1.84883 33.0855 2.32316 33.5744 2.4335V2.43697Z" fill="black"/>
<path d="M27.25 2.08759H27.3067C27.8411 2.05636 28.3837 2.04016 28.9193 2.04016C29.4283 2.04016 29.9431 2.05405 30.4487 2.08297C30.7843 2.10177 31.1044 1.94011 31.2885 1.65887C31.4726 1.37763 31.4927 1.01954 31.3412 0.719494C31.1897 0.419448 30.8896 0.223028 30.554 0.204222C30.016 0.17183 29.4654 0.15332 28.9216 0.15332C28.3432 0.15332 27.7648 0.170673 27.1979 0.204222C26.6864 0.22919 26.2888 0.658877 26.3036 1.17083C26.3184 1.68277 26.7401 2.08877 27.2523 2.08412L27.25 2.08759Z" fill="black"/>
<path d="M55.9227 21.6537C55.4185 21.7759 55.1082 22.2829 55.2286 22.7874C55.4711 23.8075 55.6542 24.8408 55.7769 25.8821C55.8331 26.3553 56.234 26.7119 56.7105 26.7127C56.7492 26.7127 56.7878 26.7104 56.8262 26.7057C57.3411 26.6453 57.71 26.1796 57.651 25.6646C57.5198 24.5505 57.324 23.445 57.0645 22.3536C57.0075 22.1085 56.8546 21.8964 56.64 21.7649C56.4254 21.6333 56.167 21.5933 55.9227 21.6537Z" fill="black"/>
<path d="M54.3379 38.3263C54.223 38.6422 54.2854 38.9955 54.5016 39.253C54.7178 39.5105 55.0549 39.6331 55.386 39.5746C55.7171 39.5161 55.9919 39.2855 56.1068 38.9695C56.4905 37.9144 56.8122 36.8379 57.0704 35.7453C57.1899 35.2396 56.8768 34.7328 56.3711 34.6133C55.8654 34.4938 55.3586 34.8069 55.2391 35.3126C54.9976 36.3339 54.6967 37.3401 54.3379 38.3263Z" fill="black"/>
<path d="M39.5913 4.22544C40.5548 4.63986 41.4935 5.10995 42.4024 5.63334C42.8529 5.89274 43.4283 5.73788 43.6877 5.28744C43.9471 4.837 43.7923 4.26157 43.3418 4.00217C42.3692 3.44295 41.3649 2.94079 40.334 2.49825C40.025 2.36557 39.6688 2.4078 39.3994 2.60902C39.13 2.81024 38.9885 3.13989 39.028 3.47378C39.0676 3.80767 39.2823 4.09508 39.5913 4.22776V4.22544Z" fill="black"/>
<path d="M1.47735 34.644C0.973762 34.7663 0.663566 35.2724 0.78323 35.7766C1.04221 36.8684 1.36475 37.9442 1.74921 38.9985C1.92747 39.4866 2.46768 39.7378 2.95582 39.5595C3.44395 39.3813 3.69515 38.8411 3.5169 38.3529C3.1575 37.3687 2.85582 36.3644 2.61339 35.3451C2.55653 35.101 2.4046 34.8897 2.19131 34.7581C1.97802 34.6264 1.72102 34.5854 1.47735 34.644Z" fill="black"/>
<path d="M20.8547 3.22018C20.9468 3.22009 21.0384 3.20645 21.1265 3.17969C22.1307 2.87829 23.1517 2.63571 24.1841 2.45318C24.6783 2.34635 24.9996 1.86794 24.9115 1.37008C24.8235 0.872218 24.3576 0.53305 23.8567 0.602203C22.752 0.7975 21.6596 1.05708 20.5851 1.37962C20.1389 1.51487 19.8588 1.95633 19.9266 2.41767C19.9943 2.87901 20.3895 3.22129 20.8558 3.2225L20.8547 3.22018Z" fill="black"/>
<path d="M56.9026 28.0776C56.3832 28.0776 55.9621 28.4987 55.9621 29.0182V29.0772C55.962 30.1263 55.9017 31.1746 55.7816 32.2169C55.743 32.5508 55.8855 32.88 56.1553 33.0805C56.4252 33.2809 56.7816 33.3222 57.0901 33.1887C57.3986 33.0551 57.6125 32.7672 57.6511 32.4332C57.7796 31.3195 57.8441 30.1994 57.8443 29.0783V29.0193C57.8443 28.4992 57.4227 28.0776 56.9026 28.0776V28.0776Z" fill="black"/>
<path d="M33.6313 55.7093C32.598 55.8905 31.555 56.0118 30.5077 56.0726C29.9965 56.0977 29.5992 56.527 29.6137 57.0386C29.6281 57.5503 30.0491 57.9564 30.5609 57.9525H30.6165C31.7363 57.8879 32.8515 57.7585 33.9563 57.565C34.2991 57.5199 34.5895 57.2904 34.7126 56.9674C34.8357 56.6444 34.7717 56.2798 34.5459 56.0181C34.3201 55.7563 33.9689 55.6396 33.6313 55.714V55.7093Z" fill="black"/>
<path d="M27.3634 56.0736C26.3162 56.014 25.2733 55.8938 24.2399 55.7139C23.9019 55.6387 23.55 55.7553 23.3237 56.0175C23.0975 56.2796 23.0336 56.6448 23.1574 56.9681C23.2811 57.2915 23.5725 57.5207 23.916 57.5648C25.0209 57.7571 26.1361 57.8853 27.2558 57.9489H27.3102C27.8296 57.9633 28.2624 57.5538 28.2768 57.0344C28.2911 56.515 27.8817 56.0822 27.3623 56.0679L27.3634 56.0736Z" fill="black"/>
<path d="M21.181 54.991C20.1756 54.6911 19.1887 54.3326 18.2252 53.9174C17.7479 53.7117 17.1942 53.9318 16.9885 54.4091C16.7828 54.8864 17.0029 55.4401 17.4802 55.6458C18.5112 56.09 19.5673 56.4735 20.643 56.7946C20.9652 56.8907 21.3142 56.8076 21.5585 56.5766C21.8028 56.3456 21.9053 56.0019 21.8274 55.6748C21.7496 55.3478 21.5031 55.0871 21.181 54.991Z" fill="black"/>
<path d="M1.01698 26.7947C1.2649 26.823 1.5139 26.7516 1.70918 26.5962C1.90445 26.4409 2.02999 26.2143 2.05815 25.9663C2.17766 24.9245 2.35766 23.8904 2.59725 22.8694C2.69682 22.3714 2.38355 21.8842 1.88913 21.7681C1.39472 21.6519 0.897304 21.9488 0.764779 22.4391C0.507949 23.5313 0.314813 24.6376 0.186348 25.7523C0.15775 26.0008 0.229294 26.2504 0.385165 26.446C0.541035 26.6416 0.768393 26.7671 1.01698 26.7947Z" fill="black"/>
<path d="M39.6433 53.9092C38.6805 54.3249 37.6944 54.6841 36.6898 54.985C36.3676 55.0815 36.1214 55.3426 36.0439 55.6699C35.9664 55.9971 36.0694 56.3409 36.314 56.5716C36.5587 56.8024 36.9079 56.8851 37.2301 56.7886C38.3052 56.4649 39.3605 56.0786 40.3906 55.6317C40.6992 55.4982 40.913 55.2103 40.9517 54.8763C40.9903 54.5424 40.8479 54.2132 40.578 54.0127C40.3081 53.8123 39.9518 53.771 39.6433 53.9045V53.9092Z" fill="black"/>
<path d="M1.24016 33.2894C1.75554 33.2296 2.12514 32.7637 2.06616 32.2482C1.94525 31.206 1.88422 30.1577 1.88337 29.1085C1.88337 28.5891 1.46228 28.168 0.942843 28.168C0.692999 28.1674 0.453176 28.2662 0.276292 28.4426C0.099408 28.6191 -7.55998e-07 28.8587 0 29.1085C0.00138595 30.2296 0.0670493 31.3498 0.196667 32.4634C0.251833 32.9373 0.653126 33.2949 1.13025 33.2952C1.16697 33.2954 1.20366 33.2934 1.24016 33.2894Z" fill="black"/>
<path fill-rule="evenodd" clip-rule="evenodd" d="M13.4058 19.8789H2.53134C1.42718 19.8789 0.53136 18.9852 0.528809 17.881V15.6124C0.529305 13.5168 1.49342 11.5378 3.14332 10.2457C2.40317 7.77687 3.67133 5.15158 6.06533 4.19669C8.45932 3.24181 11.1862 4.27361 12.3484 6.57412C13.5106 8.87462 12.7232 11.6818 10.5341 13.0423C8.34495 14.4027 5.47927 13.8658 3.93114 11.8052C2.84907 12.7756 2.2304 14.1601 2.2294 15.6136V17.881C2.2294 18.0473 2.36388 18.1823 2.53018 18.183H13.4047C13.5714 18.183 13.7066 18.0478 13.7066 17.881V15.6159C13.7072 15.0539 13.615 14.4958 13.4336 13.9639C13.3279 13.6748 13.3868 13.3512 13.5877 13.118C13.7886 12.8848 14.0999 12.7785 14.4014 12.8403C14.703 12.902 14.9475 13.1221 15.0405 13.4155C15.2817 14.1232 15.4044 14.8659 15.4037 15.6136V17.881C15.4012 18.9834 14.5082 19.8764 13.4058 19.8789ZM11.1939 8.81584C11.1939 7.00323 9.72452 5.53382 7.91191 5.53382V5.53266C6.09964 5.53458 4.63116 7.00357 4.62989 8.81584C4.62989 10.6284 6.0993 12.0979 7.91191 12.0979C9.72452 12.0979 11.1939 10.6284 11.1939 8.81584Z" fill="black"/>
<path fill-rule="evenodd" clip-rule="evenodd" d="M42.4395 17.88V15.6114C42.4416 13.5184 43.4051 11.5424 45.0528 10.2517C44.3065 7.78406 45.569 5.15515 47.9616 4.19498C50.3541 3.23481 53.0837 4.26157 54.2503 6.56052C55.4169 8.85947 54.6339 11.6687 52.4463 13.0328C50.2587 14.3968 47.3915 13.8635 45.8406 11.8042C44.7586 12.7746 44.1399 14.1591 44.1389 15.6126V17.88C44.1389 18.0468 44.2741 18.182 44.4408 18.182H55.3153C55.3954 18.182 55.4722 18.1502 55.5288 18.0935C55.5855 18.0369 55.6173 17.9601 55.6173 17.88V15.6149C55.6178 15.053 55.5256 14.4948 55.3443 13.9629C55.2385 13.6738 55.2975 13.3502 55.4983 13.117C55.6992 12.8838 56.0106 12.7775 56.3121 12.8393C56.6136 12.9011 56.8581 13.1211 56.9511 13.4145C57.1923 14.1222 57.3151 14.8649 57.3144 15.6126V17.88C57.3131 18.9842 56.4183 19.879 55.3142 19.8802H44.4397C43.3355 19.879 42.4407 18.9842 42.4395 17.88ZM52.8524 7.55772C52.3444 6.33132 51.1477 5.53168 49.8202 5.53168V5.53284C48.0089 5.53475 46.5408 7.00233 46.5382 8.8137C46.5382 10.1412 47.3379 11.3379 48.5643 11.8459C49.7907 12.3539 51.2023 12.0731 52.141 11.1344C53.0796 10.1958 53.3604 8.78413 52.8524 7.55772Z" fill="black"/>
<path fill-rule="evenodd" clip-rule="evenodd" d="M55.3824 47.7538C55.4818 47.5516 55.6575 47.3972 55.8707 47.3245C56.0843 47.2518 56.318 47.2671 56.5203 47.3669C56.7225 47.4667 56.8768 47.643 56.9489 47.8567C57.1901 48.5644 57.3129 49.307 57.3122 50.0547V52.3222C57.3109 53.4263 56.4161 54.3211 55.312 54.3224H44.4375C43.3333 54.3211 42.4385 53.4263 42.4373 52.3222V50.0547C42.439 47.9615 43.402 45.9851 45.0495 44.6938C44.3031 42.2262 45.5657 39.5973 47.9582 38.6371C50.3507 37.6769 53.0804 38.7037 54.247 41.0027C55.4136 43.3016 54.6306 46.1109 52.443 47.4749C50.2554 48.8389 47.3882 48.3057 45.8373 46.2463C44.7552 47.2167 44.1365 48.6013 44.1355 50.0547V52.3222C44.1355 52.4023 44.1673 52.479 44.224 52.5357C44.2806 52.5923 44.3574 52.6241 44.4375 52.6241H55.312C55.3921 52.6241 55.4689 52.5923 55.5255 52.5357C55.5821 52.479 55.6139 52.4023 55.6139 52.3222V50.0547C55.6145 49.4928 55.5222 48.9346 55.3409 48.4027C55.2681 48.1895 55.283 47.9561 55.3824 47.7538ZM53.1012 43.257C53.1012 41.4444 51.6318 39.975 49.8192 39.975C48.0074 39.9769 46.5391 41.4452 46.5372 43.257C46.5372 45.0696 48.0066 46.539 49.8192 46.539C51.6318 46.539 53.1012 45.0696 53.1012 43.257Z" fill="black"/>
<path fill-rule="evenodd" clip-rule="evenodd" d="M13.4739 47.7537C13.5733 47.5515 13.749 47.397 13.9623 47.3244C14.1766 47.2511 14.4113 47.2665 14.6142 47.3671C14.8171 47.4676 14.9714 47.6451 15.0428 47.86C15.284 48.5677 15.4067 49.3104 15.4061 50.058V52.3255C15.4048 53.4297 14.51 54.3244 13.4058 54.3257H2.53134C2.00003 54.3257 1.49051 54.1146 1.11493 53.7388C0.739347 53.363 0.528503 52.8533 0.528809 52.322V50.0546C0.530525 47.9614 1.49357 45.985 3.14101 44.6937C2.39613 42.229 3.6575 39.6035 6.04716 38.6448C8.43682 37.6861 11.163 38.7117 12.3281 41.0078C13.4933 43.3039 12.7114 46.1097 10.5267 47.4722C8.34191 48.8348 5.47823 48.3026 3.92883 46.2462C2.84676 47.2166 2.22809 48.6011 2.22708 50.0546V52.322C2.22708 52.4021 2.2589 52.4789 2.31552 52.5355C2.37215 52.5922 2.44895 52.624 2.52903 52.624H13.4035C13.4836 52.624 13.5604 52.5922 13.617 52.5355C13.6737 52.4789 13.7055 52.4021 13.7055 52.322V50.0546C13.7061 49.4926 13.6138 48.9344 13.4325 48.4026C13.3596 48.1893 13.3746 47.9559 13.4739 47.7537ZM11.1939 43.2569C11.1939 41.4442 9.72452 39.9748 7.91191 39.9748C6.10009 39.9767 4.6318 41.445 4.62989 43.2569C4.62989 45.0695 6.0993 46.5389 7.91191 46.5389C9.72452 46.5389 11.1939 45.0695 11.1939 43.2569Z" fill="black"/>
<path fill-rule="evenodd" clip-rule="evenodd" d="M27.9198 19.6974H36.9525L36.9433 19.6951C40.6389 19.6959 43.8368 22.2662 44.6326 25.8751C45.4284 29.484 43.6079 33.1608 40.2554 34.7158C38.9458 37.9261 34.6596 39.4705 34.4711 39.5376C34.1494 39.6501 33.7916 39.5594 33.5623 39.3072C33.3331 39.055 33.2769 38.6902 33.4195 38.3807C33.8708 37.4662 34.1276 36.468 34.1738 35.4492H32.8225C31.8464 37.8334 29.5346 39.3986 26.9584 39.4196H22.2153C22.2732 40.172 22.4693 40.9073 22.7937 41.5887C22.9351 41.9001 22.8759 42.266 22.6434 42.5169C22.411 42.7678 22.0507 42.8547 21.7294 42.7375C21.5778 42.6831 18.1778 41.4163 17.0881 38.7764C14.8454 37.6575 13.4365 35.3583 13.4578 32.8521C13.4121 29.2769 16.2686 26.3391 19.8437 26.2846H20.1514C20.7857 22.4869 24.0695 19.7024 27.9198 19.6974ZM38.7885 33.8134C38.8658 33.5778 39.0438 33.3888 39.2744 33.2975H39.2732C41.5993 32.3631 43.1263 30.1113 43.1337 27.6045C43.0881 24.168 40.2888 21.4063 36.8519 21.4072H28.0088C24.629 21.3899 21.8509 24.069 21.7456 27.4472C21.7268 28.2786 21.8772 29.1051 22.1875 29.8766C22.3147 30.1899 22.2423 30.5488 22.0036 30.7882L21.9908 30.801C21.7902 31.0011 21.5024 31.087 21.2249 31.0295C20.9474 30.9719 20.7175 30.7787 20.613 30.5152C20.2887 29.7109 20.1007 28.8582 20.0566 27.9921H19.8449C17.2072 28.0459 15.1103 30.2235 15.1561 32.8613C15.1362 34.8195 16.2937 36.5983 18.0922 37.3731C18.3273 37.4757 18.5057 37.6761 18.5804 37.9214C18.9802 38.9024 19.6927 39.7238 20.6072 40.2583C20.5049 39.6697 20.4854 39.0696 20.5494 38.4756C20.5988 38.0475 20.9618 37.7248 21.3927 37.7259H26.9642C28.5919 37.7144 30.0951 36.8526 30.9276 35.4539H27.9198C26.9098 35.453 25.9096 35.2566 24.9744 34.8754C24.7119 34.7701 24.5199 34.54 24.4631 34.263C24.4062 33.9859 24.4923 33.6989 24.6921 33.4988L24.7037 33.4872C24.9443 33.248 25.3047 33.176 25.6188 33.3044C26.35 33.5994 27.1313 33.7507 27.9198 33.7498H34.9882C35.4223 33.7508 35.7861 34.0783 35.8327 34.5099C35.9251 35.3761 35.8683 36.2518 35.665 37.0989C37.0617 36.4073 38.1683 35.2433 38.7885 33.8134Z" fill="black"/>
</svg>
