<svg width="87" height="87" viewBox="0 0 87 87" fill="none" xmlns="http://www.w3.org/2000/svg">
<g filter="url(#filter0_d_4_1226)">
<path d="M51.4001 51.869V46.083H38.2332V51.869C38.2332 54.9644 37.317 57.9905 35.6001 60.5661H54.0332C52.3162 57.9905 51.4 54.9644 51.4001 51.869Z" fill="#645960"/>
<path d="M51.4 50.0331H38.2338V51.869C38.2338 52.1353 38.2244 52.4015 38.2109 52.6662H51.4229C51.4095 52.4007 51.4 52.1353 51.4 51.869V50.0331Z" fill="#4B4348"/>
<path d="M10.583 1.31689H79.0499C80.5042 1.31689 81.683 2.49576 81.683 3.94996V44.7669H7.94995V3.94996C7.94995 2.49576 9.12882 1.31689 10.583 1.31689Z" fill="#E6E6E6"/>
<path d="M14.533 5.26697V13.167H77.733V5.26697H14.533Z" fill="#CCCCCC"/>
<path d="M60.616 34.2339H77.7329V43.4508H60.616V34.2339Z" fill="#CCCCCC"/>
<path d="M36.916 34.2339H55.3491V44.767H36.916V34.2339Z" fill="#CCCCCC"/>
<path d="M14.533 18.4338H31.6499V28.9669H14.533V18.4338Z" fill="#CCCCCC"/>
<path d="M60.616 18.4338H77.7329V28.9669H60.616V18.4338Z" fill="#CCCCCC"/>
<path d="M36.916 18.4338H55.3491V28.9669H36.916V18.4338Z" fill="#CCCCCC"/>
<path d="M14.533 34.2339H31.6499V42.1339H14.533V34.2339Z" fill="#CCCCCC"/>
<path d="M59.3 35.55H76.417V44.767H59.3V35.55Z" fill="#F55441"/>
<path d="M35.6001 35.55H54.0332V46.0831H35.6001V35.55Z" fill="#FFAF00"/>
<path d="M7.94995 43.45H81.683V48.7169C81.683 49.4152 81.4056 50.0849 80.9118 50.5787C80.418 51.0725 79.7483 51.35 79.0499 51.35H10.583C9.88469 51.35 9.21496 51.0725 8.72116 50.5787C8.22736 50.0849 7.94995 49.4152 7.94995 48.7169V43.45Z" fill="#315A70"/>
<path d="M13.217 6.58313V14.4831H76.417V6.58313H13.217Z" fill="#FFAF00"/>
<path d="M13.217 19.75H30.334V30.2831H13.217V19.75Z" fill="#6AD3D3"/>
<path d="M59.3 19.75H76.417V30.2831H59.3V19.75Z" fill="#19AF19"/>
<path d="M35.6001 19.75H54.0332V30.2831H35.6001V19.75Z" fill="#F55441"/>
<path d="M13.217 35.55H30.334V43.45H13.217V35.55Z" fill="#19AF19"/>
<rect x="5.31689" y="40.8169" width="26.3331" height="36.8669" rx="13.1665" fill="#645960"/>
<path d="M5.31689 46.083H31.65V72.4161H5.31689V46.083Z" fill="#E6E6E6"/>
<path d="M5.31689 69.7831V72.4161H31.65V60.8932C24.0892 66.6726 14.8335 69.7972 5.31689 69.7831Z" fill="#CCCCCC"/>
<path d="M61.9331 56.6169H75.1V77.6839H61.9331V56.6169Z" fill="#E6E6E6"/>
<path d="M61.9331 70.1631V77.6831H75.1V57.9015C71.6096 62.8582 67.1255 67.034 61.9331 70.1631Z" fill="#CCCCCC"/>
<path d="M61.9331 72.417H75.1V77.6839H61.9331V72.417Z" fill="#645960"/>
<path d="M5.31689 46.083H31.65V47.3999H5.31689V46.083Z" fill="#CCCCCC"/>
<path d="M10.583 51.35H26.383V56.6169H10.583V51.35Z" fill="#FFAF00"/>
<path fill-rule="evenodd" clip-rule="evenodd" d="M10.5831 0H79.05C81.2304 0.00261183 82.9974 1.76956 83 3.95V48.7169C82.9974 50.8974 81.2304 52.6643 79.05 52.6669H52.743C52.8816 55.2273 53.7056 57.7033 55.1288 59.8362C55.3979 60.2403 55.4229 60.7596 55.1937 61.1877C54.9646 61.6157 54.5186 61.8829 54.0331 61.8831H35.6C35.1145 61.8829 34.6685 61.6157 34.4393 61.1877C34.2102 60.7596 34.2352 60.2403 34.5043 59.8362C35.9283 57.7036 36.7531 55.2275 36.8924 52.6669H32.9669V75.05C32.9643 77.2304 31.1974 78.9974 29.0169 79H7.95C5.76956 78.9974 4.00261 77.2304 4 75.05V43.45C4.0022 41.777 5.05645 40.2863 6.63307 39.7267V3.95C6.63568 1.76956 8.40263 0.00261183 10.5831 0ZM79.05 2.63307H10.5839C9.8569 2.63394 9.2678 3.22304 9.26693 3.95V39.5H11.9V35.55C11.9 35.2007 12.0387 34.8658 12.2857 34.6188C12.5327 34.3718 12.8677 34.2331 13.2169 34.2331H30.3331C30.6823 34.2331 31.0173 34.3718 31.2643 34.6188C31.5113 34.8658 31.65 35.2007 31.65 35.55V40.5088C32.1434 40.9506 32.5182 41.5091 32.7402 42.1331H34.2831V35.55C34.2831 35.2007 34.4218 34.8658 34.6688 34.6188C34.9158 34.3718 35.2507 34.2331 35.6 34.2331H54.0331C54.3823 34.2331 54.7173 34.3718 54.9643 34.6188C55.2113 34.8658 55.35 35.2007 55.35 35.55V42.1331H57.9831V35.55C57.9831 35.2007 58.1218 34.8658 58.3688 34.6188C58.6158 34.3718 58.9507 34.2331 59.3 34.2331H76.4169C76.7662 34.2331 77.1012 34.3718 77.3481 34.6188C77.5951 34.8658 77.7339 35.2007 77.7339 35.55V42.1331H80.3669V3.95C80.3661 3.22304 79.777 2.63394 79.05 2.63307ZM75.1 42.1331H60.6169V36.8669H75.1V42.1331ZM36.9169 42.1331H52.7169V36.8669H36.9169V42.1331ZM29.0169 39.5H14.5331V36.8669H29.0169V39.5ZM29.0169 42.1331H7.95C7.22304 42.1339 6.63394 42.723 6.63307 43.45V44.7669H30.3331V43.45C30.3322 42.7234 29.7436 42.1344 29.0169 42.1331ZM30.3331 47.4V71.1H6.63307V47.4H30.3331ZM7.95 76.3669H29.0161H29.0169C29.7436 76.3656 30.3322 75.7766 30.3331 75.05V73.7331H6.63307V75.05C6.63394 75.777 7.22304 76.3661 7.95 76.3669ZM51.7681 59.25H37.8641C38.8585 57.1907 39.4253 54.9513 39.5303 52.6669H50.1004C50.2059 54.9514 50.7732 57.1908 51.7681 59.25ZM32.9669 50.0331H79.05C79.7766 50.0322 80.3656 49.4436 80.3669 48.7169V44.7669H32.9669V50.0331Z" fill="black"/>
<circle cx="44.8169" cy="47.3999" r="1.31693" fill="black"/>
<path fill-rule="evenodd" clip-rule="evenodd" d="M76.4168 15.8H13.2168C12.4898 15.8 11.9003 15.2109 11.8999 14.4839V6.5839C11.8999 5.85658 12.4895 5.26697 13.2168 5.26697H76.4168C77.1438 5.26697 77.7333 5.8561 77.7338 6.58311V14.4831C77.7338 15.2104 77.1441 15.8 76.4168 15.8ZM75.0999 7.90004H14.5338L14.533 13.167H75.0999V7.90004Z" fill="black"/>
<path fill-rule="evenodd" clip-rule="evenodd" d="M30.333 31.6H13.2168C12.4895 31.6 11.8999 31.0104 11.8999 30.2831V19.75C11.8999 19.0227 12.4895 18.4331 13.2168 18.4331H30.333C31.0603 18.4331 31.6499 19.0227 31.6499 19.75V30.2831C31.6499 31.0104 31.0603 31.6 30.333 31.6ZM29.0168 21.067H14.5338L14.533 28.967H29.0168V21.067Z" fill="black"/>
<path fill-rule="evenodd" clip-rule="evenodd" d="M59.3001 18.4331H76.4162C77.1435 18.4331 77.7332 19.0227 77.7332 19.75V30.2831C77.7332 31.0101 77.144 31.5996 76.417 31.6H59.3001C58.5728 31.6 57.9832 31.0104 57.9832 30.2831V19.75C57.9832 19.0227 58.5728 18.4331 59.3001 18.4331ZM60.6162 28.9662H75.0993V21.0662H60.6162V28.9662Z" fill="black"/>
<path fill-rule="evenodd" clip-rule="evenodd" d="M35.5999 18.4331H54.033C54.7603 18.4331 55.3499 19.0227 55.3499 19.75V30.2831C55.3499 31.0104 54.7603 31.6 54.033 31.6H35.5999C34.8726 31.6 34.283 31.0104 34.283 30.2831V19.75C34.283 19.0227 34.8726 18.4331 35.5999 18.4331ZM36.916 28.9662H52.716V21.0662H36.916V28.9662Z" fill="black"/>
<path fill-rule="evenodd" clip-rule="evenodd" d="M75.1 79C75.8273 79 76.4169 78.4104 76.4169 77.6831V56.617C76.4169 55.8897 75.8273 55.3 75.1 55.3H61.9339C61.5846 55.3 61.2496 55.4388 61.0027 55.6858C60.7557 55.9327 60.6169 56.2677 60.6169 56.617V77.6839C60.6174 78.4109 61.2069 79 61.9339 79H75.1ZM68.5169 76.367H63.25V73.7339H73.7831V76.367H68.5169ZM73.7839 71.1V57.9339L63.25 57.9331V71.1H73.7839Z" fill="black"/>
<circle cx="68.5169" cy="75.05" r="1.31693" fill="black"/>
<path d="M64.5669 60.5669H72.4669V63.2H64.5669V60.5669Z" fill="black"/>
<path d="M64.5669 65.833H72.4669V68.4661H64.5669V65.833Z" fill="black"/>
<circle cx="18.4839" cy="75.05" r="1.31693" fill="black"/>
<path fill-rule="evenodd" clip-rule="evenodd" d="M26.3838 57.9331H10.5838C9.85676 57.9331 9.26728 57.344 9.26685 56.6169V51.35C9.26685 50.6227 9.85646 50.0331 10.5838 50.0331H26.3838C27.1108 50.0331 27.7003 50.6222 27.7007 51.3492V56.6162C27.7007 57.3435 27.1111 57.9331 26.3838 57.9331ZM25.0668 52.6662H11.9007L11.8999 55.2992H25.0668V52.6662Z" fill="black"/>
<path d="M22.4331 60.5669H27.7V63.2H22.4331V60.5669Z" fill="black"/>
<path d="M22.4331 65.833H27.7V68.4661H22.4331V65.833Z" fill="black"/>
<path d="M15.8501 60.5669H21.117V63.2H15.8501V60.5669Z" fill="black"/>
<path d="M15.8501 65.833H21.117V68.4661H15.8501V65.833Z" fill="black"/>
<path d="M9.26685 60.5669H14.5338V63.2H9.26685V60.5669Z" fill="black"/>
<path d="M9.26685 65.833H14.5338V68.4661H9.26685V65.833Z" fill="black"/>
</g>
<defs>
<filter id="filter0_d_4_1226" x="0" y="0" width="87" height="87" filterUnits="userSpaceOnUse" color-interpolation-filters="sRGB">
<feFlood flood-opacity="0" result="BackgroundImageFix"/>
<feColorMatrix in="SourceAlpha" type="matrix" values="0 0 0 0 0 0 0 0 0 0 0 0 0 0 0 0 0 0 127 0" result="hardAlpha"/>
<feOffset dy="4"/>
<feGaussianBlur stdDeviation="2"/>
<feComposite in2="hardAlpha" operator="out"/>
<feColorMatrix type="matrix" values="0 0 0 0 0 0 0 0 0 0 0 0 0 0 0 0 0 0 0.25 0"/>
<feBlend mode="normal" in2="BackgroundImageFix" result="effect1_dropShadow_4_1226"/>
<feBlend mode="normal" in="SourceGraphic" in2="effect1_dropShadow_4_1226" result="shape"/>
</filter>
</defs>
</svg>
